# xmcd
#
# Track frame offsets: 
#        150
#        16245
#        31708
#        44199
#        60159
#        74233
#        88496
#        105099
#        120605
#        135268
#        152755
#        167641
#        185852
#        199118
#        212884
#        228744
#        244899
#        261353
#        276201
#        291608
#
# Disc length: 4068 seconds
#
# Revision: 0
# Processed by: cddbd v1.5.2PL0 Copyright (c) Steve Scherf et al.
# Submitted via: ExactAudioCopy v1.1
#
DISCID=340fe214
DTITLE=Various Artist - 100 x Zomer 2017 - CD 2
DYEAR=2017
DGENRE=Pop
TTITLE0=Maroon 5 - Don't Wanna Know
TTITLE1=DJ Snake Feat. Justin Bieber - Let Me Love You
TTITLE2=Ronnie Flex Feat. Frenna - Energie
TTITLE3=Calvin Harris and Disciples - How Deep Is Your Love
TTITLE4=Lucas and Steve - Up Till Dawn (On The Move)
TTITLE5=Axwell V Ingrosso Feat. Kid Ink - I Love You
TTITLE6=Ellie Goulding - Still Falling For You
TTITLE7=Sak Noel and Salvi Feat. Sean Paul - Trumpets
TTITLE8=Kris Kross Amsterdam and Conor Maynard Feat. Ty Dolla Sign - Are
TTITLE8=You Sure
TTITLE9=MØ - Final Song
TTITLE10=Simply Red - Sunrise
TTITLE11=Frenna Feat. Jonna Fraser and Emms - My Love
TTITLE12=Imagine Dragons - Demons
TTITLE13=Felix Jaehn Feat. Alma - Bonfire
TTITLE14=Salt-N-Pepa - Let's Talk About Sex
TTITLE15=5 Seconds Of Summer - Girls Talk Boys
TTITLE16=Marc E. Bassy Feat. G-Eazy - You and Me
TTITLE17=Tove Lo - Cool Girl
TTITLE18=Sigma Feat. Birdy - Find Me
TTITLE19=Sigrid - Don't Kill My Vibe
EXTD=
EXTT0=
EXTT1=
EXTT2=
EXTT3=
EXTT4=
EXTT5=
EXTT6=
EXTT7=
EXTT8=
EXTT9=
EXTT10=
EXTT11=
EXTT12=
EXTT13=
EXTT14=
EXTT15=
EXTT16=
EXTT17=
EXTT18=
EXTT19=
PLAYORDER=
